<svg width="56" height="20" viewBox="0 0 56 20" fill="none" xmlns="http://www.w3.org/2000/svg">
<rect x="1" y="1" width="54" height="18" rx="9" stroke="#1FB535" stroke-width="2"/>
<path d="M23.5885 10.3486H21.7379V9.37695H23.5885C23.9107 9.37695 24.1712 9.32487 24.3697 9.2207C24.5683 9.11654 24.7132 8.97331 24.8043 8.79102C24.8987 8.60547 24.9459 8.39388 24.9459 8.15625C24.9459 7.93164 24.8987 7.72168 24.8043 7.52637C24.7132 7.3278 24.5683 7.16829 24.3697 7.04785C24.1712 6.92741 23.9107 6.86719 23.5885 6.86719H22.1139V13H20.8883V5.89062H23.5885C24.1386 5.89062 24.6057 5.98828 24.9898 6.18359C25.3772 6.37565 25.6718 6.64258 25.8736 6.98438C26.0755 7.32292 26.1764 7.71029 26.1764 8.14648C26.1764 8.60547 26.0755 8.99935 25.8736 9.32812C25.6718 9.6569 25.3772 9.90918 24.9898 10.085C24.6057 10.2607 24.1386 10.3486 23.5885 10.3486ZM28.4395 8.72266V13H27.2627V7.7168H28.3857L28.4395 8.72266ZM30.0557 7.68262L30.0459 8.77637C29.9743 8.76335 29.8962 8.75358 29.8115 8.74707C29.7301 8.74056 29.6488 8.7373 29.5674 8.7373C29.3656 8.7373 29.1882 8.7666 29.0352 8.8252C28.8822 8.88053 28.7536 8.96191 28.6494 9.06934C28.5485 9.1735 28.4704 9.30046 28.415 9.4502C28.3597 9.59993 28.3271 9.76758 28.3174 9.95312L28.0488 9.97266C28.0488 9.64062 28.0814 9.33301 28.1465 9.0498C28.2116 8.7666 28.3092 8.51758 28.4395 8.30273C28.5729 8.08789 28.7389 7.92025 28.9375 7.7998C29.1393 7.67936 29.3721 7.61914 29.6357 7.61914C29.7074 7.61914 29.7839 7.62565 29.8652 7.63867C29.9499 7.65169 30.0133 7.66634 30.0557 7.68262ZM30.5414 10.417V10.3047C30.5414 9.92383 30.5967 9.57064 30.7074 9.24512C30.8181 8.91634 30.9776 8.63151 31.1859 8.39062C31.3975 8.14648 31.6547 7.95768 31.9574 7.82422C32.2634 7.6875 32.6085 7.61914 32.9926 7.61914C33.3799 7.61914 33.725 7.6875 34.0277 7.82422C34.3337 7.95768 34.5925 8.14648 34.8041 8.39062C35.0157 8.63151 35.1768 8.91634 35.2875 9.24512C35.3982 9.57064 35.4535 9.92383 35.4535 10.3047V10.417C35.4535 10.7979 35.3982 11.151 35.2875 11.4766C35.1768 11.8021 35.0157 12.0869 34.8041 12.3311C34.5925 12.5719 34.3354 12.7607 34.0326 12.8975C33.7299 13.0309 33.3865 13.0977 33.0023 13.0977C32.615 13.0977 32.2683 13.0309 31.9623 12.8975C31.6596 12.7607 31.4024 12.5719 31.1908 12.3311C30.9792 12.0869 30.8181 11.8021 30.7074 11.4766C30.5967 11.151 30.5414 10.7979 30.5414 10.417ZM31.7182 10.3047V10.417C31.7182 10.6546 31.7426 10.8792 31.7914 11.0908C31.8402 11.3024 31.9167 11.488 32.0209 11.6475C32.1251 11.807 32.2585 11.9323 32.4213 12.0234C32.584 12.1146 32.7777 12.1602 33.0023 12.1602C33.2204 12.1602 33.4092 12.1146 33.5688 12.0234C33.7315 11.9323 33.865 11.807 33.9691 11.6475C34.0733 11.488 34.1498 11.3024 34.1986 11.0908C34.2507 10.8792 34.2768 10.6546 34.2768 10.417V10.3047C34.2768 10.0703 34.2507 9.84896 34.1986 9.64062C34.1498 9.42904 34.0717 9.24186 33.9643 9.0791C33.8601 8.91634 33.7266 8.78939 33.5639 8.69824C33.4044 8.60384 33.2139 8.55664 32.9926 8.55664C32.7712 8.55664 32.5792 8.60384 32.4164 8.69824C32.2569 8.78939 32.1251 8.91634 32.0209 9.0791C31.9167 9.24186 31.8402 9.42904 31.7914 9.64062C31.7426 9.84896 31.7182 10.0703 31.7182 10.3047Z" fill="#1FB535"/>
</svg>
