<svg xmlns="http://www.w3.org/2000/svg" xmlns:xlink="http://www.w3.org/1999/xlink" version="1.1" width="1000" height="1000" viewBox="0 0 1000 1000" xml:space="preserve">
<desc>Created with Fabric.js 3.5.0</desc>
<defs>
</defs>
<rect x="0" y="0" width="100%" height="100%" fill="rgba(102,51,102,0)"/>
<g transform="matrix(8.9559 0 0 8.9559 500.0019 500.0021)" id="679430">
<path style="stroke: none; stroke-width: 1; stroke-dasharray: none; stroke-linecap: butt; stroke-dashoffset: 0; stroke-linejoin: miter; stroke-miterlimit: 4; is-custom-font: none; font-file-url: none; fill: rgb(73,69,79); fill-rule: nonzero; opacity: 1;" vector-effect="non-scaling-stroke" transform=" translate(-52.3803, -54.4343)" d="M 25.985 77.1909 C 29.6331 74.2906 33.7104 72.0038 38.2169 70.3305 C 42.7234 68.6572 47.4446 67.8206 52.3803 67.8206 C 57.316 67.8206 62.0371 68.6572 66.5436 70.3305 C 71.0501 72.0038 75.1274 74.2906 78.7756 77.1909 C 81.2792 74.1419 83.2284 70.6837 84.6233 66.8166 C 86.0182 62.9495 86.7156 58.822 86.7156 54.4343 C 86.7156 44.5434 83.3715 36.1212 76.6833 29.1678 C 69.995 22.2144 61.894 18.7376 52.3803 18.7376 C 42.8665 18.7376 34.7655 22.2144 28.0773 29.1678 C 21.389 36.1212 18.0449 44.5434 18.0449 54.4343 C 18.0449 58.822 18.7423 62.9495 20.1372 66.8166 C 21.5321 70.6837 23.4813 74.1419 25.985 77.1909 Z M 52.3803 58.8964 C 48.1599 58.8964 44.6012 57.3904 41.7041 54.3785 C 38.8071 51.3666 37.3585 47.6668 37.3585 43.2791 C 37.3585 38.8914 38.8071 35.1916 41.7041 32.1797 C 44.6012 29.1678 48.1599 27.6618 52.3803 27.6618 C 56.6007 27.6618 60.1594 29.1678 63.0564 32.1797 C 65.9535 35.1916 67.402 38.8914 67.402 43.2791 C 67.402 47.6668 65.9535 51.3666 63.0564 54.3785 C 60.1594 57.3904 56.6007 58.8964 52.3803 58.8964 Z M 52.3803 99.0552 C 46.4431 99.0552 40.8636 97.8839 35.6418 95.5413 C 30.4199 93.1987 25.8777 90.0194 22.0149 86.0036 C 18.1522 81.9877 15.0942 77.2653 12.8409 71.8365 C 10.5877 66.4076 9.46106 60.6069 9.46106 54.4343 C 9.46106 48.2618 10.5877 42.4611 12.8409 37.0322 C 15.0942 31.6033 18.1522 26.8809 22.0149 22.8651 C 25.8777 18.8492 30.4199 15.67 35.6418 13.3274 C 40.8636 10.9848 46.4431 9.81348 52.3803 9.81348 C 58.3174 9.81348 63.8969 10.9848 69.1188 13.3274 C 74.3406 15.67 78.8829 18.8492 82.7456 22.8651 C 86.6083 26.8809 89.6663 31.6033 91.9196 37.0322 C 94.1728 42.4611 95.2995 48.2618 95.2995 54.4343 C 95.2995 60.6069 94.1728 66.4076 91.9196 71.8365 C 89.6663 77.2653 86.6083 81.9877 82.7456 86.0036 C 78.8829 90.0194 74.3406 93.1987 69.1188 95.5413 C 63.8969 97.8839 58.3174 99.0552 52.3803 99.0552 Z" stroke-linecap="round"/>
</g>
<g transform="matrix(1 0 0 1 500 500)" id="920258">
<path style="stroke: none; stroke-width: 1; stroke-dasharray: none; stroke-linecap: butt; stroke-dashoffset: 0; stroke-linejoin: miter; stroke-miterlimit: 4; is-custom-font: none; font-file-url: none; fill: rgb(73,69,79); fill-rule: nonzero; opacity: 1;" vector-effect="non-scaling-stroke" transform=" translate(-11.5389, -11.6351)" d="M 10.5935 16.3619 H 12.4843 V 12.5804 H 16.2657 V 10.6897 H 12.4843 V 6.9083 H 10.5935 V 10.6897 H 6.81211 V 12.5804 H 10.5935 V 16.3619 Z M 11.5389 21.0887 C 10.2312 21.0887 9.00219 20.8444 7.85201 20.356 C 6.70182 19.8518 5.70132 19.1743 4.8505 18.3235 C 3.99968 17.4727 3.32217 16.4722 2.81798 15.322 C 2.32954 14.1718 2.08533 12.9428 2.08533 11.6351 C 2.08533 10.3273 2.32954 9.09838 2.81798 7.9482 C 3.32217 6.79801 3.99968 5.79751 4.8505 4.94669 C 5.70132 4.09587 6.70182 3.42624 7.85201 2.9378 C 9.00219 2.43361 10.2312 2.18152 11.5389 2.18152 C 12.8466 2.18152 14.0756 2.43361 15.2258 2.9378 C 16.376 3.42624 17.3765 4.09587 18.2273 4.94669 C 19.0781 5.79751 19.7477 6.79801 20.2362 7.9482 C 20.7404 9.09838 20.9925 10.3273 20.9925 11.6351 C 20.9925 12.9428 20.7404 14.1718 20.2362 15.322 C 19.7477 16.4722 19.0781 17.4727 18.2273 18.3235 C 17.3765 19.1743 16.376 19.8518 15.2258 20.356 C 14.0756 20.8444 12.8466 21.0887 11.5389 21.0887 Z M 11.5389 19.1979 C 13.6502 19.1979 15.4385 18.4653 16.9038 17 C 18.3691 15.5347 19.1018 13.7464 19.1018 11.6351 C 19.1018 9.52379 18.3691 7.73549 16.9038 6.27019 C 15.4385 4.80488 13.6502 4.07223 11.5389 4.07223 C 9.4276 4.07223 7.6393 4.80488 6.174 6.27019 C 4.70869 7.73549 3.97604 9.52379 3.97604 11.6351 C 3.97604 13.7464 4.70869 15.5347 6.174 17 C 7.6393 18.4653 9.4276 19.1979 11.5389 19.1979 Z" stroke-linecap="round"/>
</g>
<g transform="matrix(1 0 0 1 500 500)" id="97034">
<path style="stroke: none; stroke-width: 1; stroke-dasharray: none; stroke-linecap: butt; stroke-dashoffset: 0; stroke-linejoin: miter; stroke-miterlimit: 4; is-custom-font: none; font-file-url: none; fill: rgb(73,69,79); fill-rule: nonzero; opacity: 1;" vector-effect="non-scaling-stroke" transform=" translate(-11.5389, -11.6351)" d="M 10.5935 16.3619 H 12.4843 V 12.5804 H 16.2657 V 10.6897 H 12.4843 V 6.9083 H 10.5935 V 10.6897 H 6.81211 V 12.5804 H 10.5935 V 16.3619 Z M 11.5389 21.0887 C 10.2312 21.0887 9.00219 20.8444 7.85201 20.356 C 6.70182 19.8518 5.70132 19.1743 4.8505 18.3235 C 3.99968 17.4727 3.32217 16.4722 2.81798 15.322 C 2.32954 14.1718 2.08533 12.9428 2.08533 11.6351 C 2.08533 10.3273 2.32954 9.09838 2.81798 7.9482 C 3.32217 6.79801 3.99968 5.79751 4.8505 4.94669 C 5.70132 4.09587 6.70182 3.42624 7.85201 2.9378 C 9.00219 2.43361 10.2312 2.18152 11.5389 2.18152 C 12.8466 2.18152 14.0756 2.43361 15.2258 2.9378 C 16.376 3.42624 17.3765 4.09587 18.2273 4.94669 C 19.0781 5.79751 19.7477 6.79801 20.2362 7.9482 C 20.7404 9.09838 20.9925 10.3273 20.9925 11.6351 C 20.9925 12.9428 20.7404 14.1718 20.2362 15.322 C 19.7477 16.4722 19.0781 17.4727 18.2273 18.3235 C 17.3765 19.1743 16.376 19.8518 15.2258 20.356 C 14.0756 20.8444 12.8466 21.0887 11.5389 21.0887 Z M 11.5389 19.1979 C 13.6502 19.1979 15.4385 18.4653 16.9038 17 C 18.3691 15.5347 19.1018 13.7464 19.1018 11.6351 C 19.1018 9.52379 18.3691 7.73549 16.9038 6.27019 C 15.4385 4.80488 13.6502 4.07223 11.5389 4.07223 C 9.4276 4.07223 7.6393 4.80488 6.174 6.27019 C 4.70869 7.73549 3.97604 9.52379 3.97604 11.6351 C 3.97604 13.7464 4.70869 15.5347 6.174 17 C 7.6393 18.4653 9.4276 19.1979 11.5389 19.1979 Z" stroke-linecap="round"/>
</g>
<g transform="matrix(1 0 0 1 500 500)" id="979139">
<path style="stroke: none; stroke-width: 1; stroke-dasharray: none; stroke-linecap: butt; stroke-dashoffset: 0; stroke-linejoin: miter; stroke-miterlimit: 4; is-custom-font: none; font-file-url: none; fill: rgb(73,69,79); fill-rule: nonzero; opacity: 1;" vector-effect="non-scaling-stroke" transform=" translate(-11.5389, -11.6351)" d="M 10.5935 16.3619 H 12.4843 V 12.5804 H 16.2657 V 10.6897 H 12.4843 V 6.9083 H 10.5935 V 10.6897 H 6.81211 V 12.5804 H 10.5935 V 16.3619 Z M 11.5389 21.0887 C 10.2312 21.0887 9.00219 20.8444 7.85201 20.356 C 6.70182 19.8518 5.70132 19.1743 4.8505 18.3235 C 3.99968 17.4727 3.32217 16.4722 2.81798 15.322 C 2.32954 14.1718 2.08533 12.9428 2.08533 11.6351 C 2.08533 10.3273 2.32954 9.09838 2.81798 7.9482 C 3.32217 6.79801 3.99968 5.79751 4.8505 4.94669 C 5.70132 4.09587 6.70182 3.42624 7.85201 2.9378 C 9.00219 2.43361 10.2312 2.18152 11.5389 2.18152 C 12.8466 2.18152 14.0756 2.43361 15.2258 2.9378 C 16.376 3.42624 17.3765 4.09587 18.2273 4.94669 C 19.0781 5.79751 19.7477 6.79801 20.2362 7.9482 C 20.7404 9.09838 20.9925 10.3273 20.9925 11.6351 C 20.9925 12.9428 20.7404 14.1718 20.2362 15.322 C 19.7477 16.4722 19.0781 17.4727 18.2273 18.3235 C 17.3765 19.1743 16.376 19.8518 15.2258 20.356 C 14.0756 20.8444 12.8466 21.0887 11.5389 21.0887 Z M 11.5389 19.1979 C 13.6502 19.1979 15.4385 18.4653 16.9038 17 C 18.3691 15.5347 19.1018 13.7464 19.1018 11.6351 C 19.1018 9.52379 18.3691 7.73549 16.9038 6.27019 C 15.4385 4.80488 13.6502 4.07223 11.5389 4.07223 C 9.4276 4.07223 7.6393 4.80488 6.174 6.27019 C 4.70869 7.73549 3.97604 9.52379 3.97604 11.6351 C 3.97604 13.7464 4.70869 15.5347 6.174 17 C 7.6393 18.4653 9.4276 19.1979 11.5389 19.1979 Z" stroke-linecap="round"/>
</g>
<g transform="matrix(1 0 0 1 500 500)" id="878462">
<path style="stroke: none; stroke-width: 1; stroke-dasharray: none; stroke-linecap: butt; stroke-dashoffset: 0; stroke-linejoin: miter; stroke-miterlimit: 4; is-custom-font: none; font-file-url: none; fill: rgb(73,69,79); fill-rule: nonzero; opacity: 1;" vector-effect="non-scaling-stroke" transform=" translate(-11.5389, -11.6351)" d="M 10.5935 16.3619 H 12.4843 V 12.5804 H 16.2657 V 10.6897 H 12.4843 V 6.9083 H 10.5935 V 10.6897 H 6.81211 V 12.5804 H 10.5935 V 16.3619 Z M 11.5389 21.0887 C 10.2312 21.0887 9.00219 20.8444 7.85201 20.356 C 6.70182 19.8518 5.70132 19.1743 4.8505 18.3235 C 3.99968 17.4727 3.32217 16.4722 2.81798 15.322 C 2.32954 14.1718 2.08533 12.9428 2.08533 11.6351 C 2.08533 10.3273 2.32954 9.09838 2.81798 7.9482 C 3.32217 6.79801 3.99968 5.79751 4.8505 4.94669 C 5.70132 4.09587 6.70182 3.42624 7.85201 2.9378 C 9.00219 2.43361 10.2312 2.18152 11.5389 2.18152 C 12.8466 2.18152 14.0756 2.43361 15.2258 2.9378 C 16.376 3.42624 17.3765 4.09587 18.2273 4.94669 C 19.0781 5.79751 19.7477 6.79801 20.2362 7.9482 C 20.7404 9.09838 20.9925 10.3273 20.9925 11.6351 C 20.9925 12.9428 20.7404 14.1718 20.2362 15.322 C 19.7477 16.4722 19.0781 17.4727 18.2273 18.3235 C 17.3765 19.1743 16.376 19.8518 15.2258 20.356 C 14.0756 20.8444 12.8466 21.0887 11.5389 21.0887 Z M 11.5389 19.1979 C 13.6502 19.1979 15.4385 18.4653 16.9038 17 C 18.3691 15.5347 19.1018 13.7464 19.1018 11.6351 C 19.1018 9.52379 18.3691 7.73549 16.9038 6.27019 C 15.4385 4.80488 13.6502 4.07223 11.5389 4.07223 C 9.4276 4.07223 7.6393 4.80488 6.174 6.27019 C 4.70869 7.73549 3.97604 9.52379 3.97604 11.6351 C 3.97604 13.7464 4.70869 15.5347 6.174 17 C 7.6393 18.4653 9.4276 19.1979 11.5389 19.1979 Z" stroke-linecap="round"/>
</g>
<g transform="matrix(1 0 0 1 500 500)" id="22074">
<path style="stroke: none; stroke-width: 1; stroke-dasharray: none; stroke-linecap: butt; stroke-dashoffset: 0; stroke-linejoin: miter; stroke-miterlimit: 4; is-custom-font: none; font-file-url: none; fill: rgb(73,69,79); fill-rule: nonzero; opacity: 1;" vector-effect="non-scaling-stroke" transform=" translate(-11.5389, -11.6351)" d="M 10.5935 16.3619 H 12.4843 V 12.5804 H 16.2657 V 10.6897 H 12.4843 V 6.9083 H 10.5935 V 10.6897 H 6.81211 V 12.5804 H 10.5935 V 16.3619 Z M 11.5389 21.0887 C 10.2312 21.0887 9.00219 20.8444 7.85201 20.356 C 6.70182 19.8518 5.70132 19.1743 4.8505 18.3235 C 3.99968 17.4727 3.32217 16.4722 2.81798 15.322 C 2.32954 14.1718 2.08533 12.9428 2.08533 11.6351 C 2.08533 10.3273 2.32954 9.09838 2.81798 7.9482 C 3.32217 6.79801 3.99968 5.79751 4.8505 4.94669 C 5.70132 4.09587 6.70182 3.42624 7.85201 2.9378 C 9.00219 2.43361 10.2312 2.18152 11.5389 2.18152 C 12.8466 2.18152 14.0756 2.43361 15.2258 2.9378 C 16.376 3.42624 17.3765 4.09587 18.2273 4.94669 C 19.0781 5.79751 19.7477 6.79801 20.2362 7.9482 C 20.7404 9.09838 20.9925 10.3273 20.9925 11.6351 C 20.9925 12.9428 20.7404 14.1718 20.2362 15.322 C 19.7477 16.4722 19.0781 17.4727 18.2273 18.3235 C 17.3765 19.1743 16.376 19.8518 15.2258 20.356 C 14.0756 20.8444 12.8466 21.0887 11.5389 21.0887 Z M 11.5389 19.1979 C 13.6502 19.1979 15.4385 18.4653 16.9038 17 C 18.3691 15.5347 19.1018 13.7464 19.1018 11.6351 C 19.1018 9.52379 18.3691 7.73549 16.9038 6.27019 C 15.4385 4.80488 13.6502 4.07223 11.5389 4.07223 C 9.4276 4.07223 7.6393 4.80488 6.174 6.27019 C 4.70869 7.73549 3.97604 9.52379 3.97604 11.6351 C 3.97604 13.7464 4.70869 15.5347 6.174 17 C 7.6393 18.4653 9.4276 19.1979 11.5389 19.1979 Z" stroke-linecap="round"/>
</g>
<g transform="matrix(6.7257 0 0 6.7257 817.249 836.0361)" id="806108">
<path style="stroke: none; stroke-width: 1; stroke-dasharray: none; stroke-linecap: butt; stroke-dashoffset: 0; stroke-linejoin: miter; stroke-miterlimit: 4; is-custom-font: none; font-file-url: none; fill: rgb(73,69,79); fill-rule: nonzero; opacity: 1;" vector-effect="non-scaling-stroke" transform=" translate(-11.5389, -11.6351)" d="M 10.5935 16.3619 H 12.4843 V 12.5804 H 16.2657 V 10.6897 H 12.4843 V 6.9083 H 10.5935 V 10.6897 H 6.81211 V 12.5804 H 10.5935 V 16.3619 Z M 11.5389 21.0887 C 10.2312 21.0887 9.00219 20.8444 7.85201 20.356 C 6.70182 19.8518 5.70132 19.1743 4.8505 18.3235 C 3.99968 17.4727 3.32217 16.4722 2.81798 15.322 C 2.32954 14.1718 2.08533 12.9428 2.08533 11.6351 C 2.08533 10.3273 2.32954 9.09838 2.81798 7.9482 C 3.32217 6.79801 3.99968 5.79751 4.8505 4.94669 C 5.70132 4.09587 6.70182 3.42624 7.85201 2.9378 C 9.00219 2.43361 10.2312 2.18152 11.5389 2.18152 C 12.8466 2.18152 14.0756 2.43361 15.2258 2.9378 C 16.376 3.42624 17.3765 4.09587 18.2273 4.94669 C 19.0781 5.79751 19.7477 6.79801 20.2362 7.9482 C 20.7404 9.09838 20.9925 10.3273 20.9925 11.6351 C 20.9925 12.9428 20.7404 14.1718 20.2362 15.322 C 19.7477 16.4722 19.0781 17.4727 18.2273 18.3235 C 17.3765 19.1743 16.376 19.8518 15.2258 20.356 C 14.0756 20.8444 12.8466 21.0887 11.5389 21.0887 Z M 11.5389 19.1979 C 13.6502 19.1979 15.4385 18.4653 16.9038 17 C 18.3691 15.5347 19.1018 13.7464 19.1018 11.6351 C 19.1018 9.52379 18.3691 7.73549 16.9038 6.27019 C 15.4385 4.80488 13.6502 4.07223 11.5389 4.07223 C 9.4276 4.07223 7.6393 4.80488 6.174 6.27019 C 4.70869 7.73549 3.97604 9.52379 3.97604 11.6351 C 3.97604 13.7464 4.70869 15.5347 6.174 17 C 7.6393 18.4653 9.4276 19.1979 11.5389 19.1979 Z" stroke-linecap="round"/>
</g>
</svg>
