<svg width="58" height="20" viewBox="0 0 58 20" fill="none" xmlns="http://www.w3.org/2000/svg">
<rect x="1" y="1" width="56" height="18" rx="9" fill="#B51F1F" fill-opacity="0.48"/>
<rect x="1" y="1" width="56" height="18" rx="9" stroke="#B51F1F" stroke-width="2"/>
<path d="M24.9352 10.6855H26.1559C26.1168 11.151 25.9866 11.5661 25.7652 11.9307C25.5439 12.292 25.233 12.5768 24.8326 12.7852C24.4322 12.9935 23.9456 13.0977 23.3727 13.0977C22.9332 13.0977 22.5377 13.0195 22.1861 12.8633C21.8346 12.7038 21.5335 12.4792 21.2828 12.1895C21.0322 11.8965 20.8401 11.5433 20.7066 11.1299C20.5764 10.7165 20.5113 10.2542 20.5113 9.74316V9.15234C20.5113 8.64128 20.5781 8.17904 20.7115 7.76562C20.8482 7.35221 21.0436 6.99902 21.2975 6.70605C21.5514 6.40983 21.8557 6.18359 22.2105 6.02734C22.5686 5.87109 22.9706 5.79297 23.4166 5.79297C23.983 5.79297 24.4615 5.89714 24.8521 6.10547C25.2428 6.3138 25.5455 6.60189 25.7604 6.96973C25.9785 7.33757 26.1119 7.75911 26.1607 8.23438H24.94C24.9075 7.92839 24.8359 7.66634 24.7252 7.44824C24.6178 7.23014 24.4583 7.06413 24.2467 6.9502C24.0351 6.83301 23.7584 6.77441 23.4166 6.77441C23.1367 6.77441 22.8925 6.8265 22.6842 6.93066C22.4758 7.03483 22.3017 7.18783 22.1617 7.38965C22.0217 7.59147 21.916 7.84049 21.8443 8.13672C21.776 8.42969 21.7418 8.76497 21.7418 9.14258V9.74316C21.7418 10.1012 21.7727 10.4268 21.8346 10.7197C21.8997 11.0094 21.9973 11.2585 22.1275 11.4668C22.261 11.6751 22.4303 11.8363 22.6354 11.9502C22.8404 12.0641 23.0862 12.1211 23.3727 12.1211C23.721 12.1211 24.0025 12.0658 24.2174 11.9551C24.4355 11.8444 24.5999 11.6833 24.7105 11.4717C24.8245 11.2568 24.8993 10.9948 24.9352 10.6855ZM27.0273 10.417V10.3047C27.0273 9.92383 27.0827 9.57064 27.1934 9.24512C27.304 8.91634 27.4635 8.63151 27.6719 8.39062C27.8835 8.14648 28.1406 7.95768 28.4434 7.82422C28.7493 7.6875 29.0944 7.61914 29.4785 7.61914C29.8659 7.61914 30.2109 7.6875 30.5137 7.82422C30.8197 7.95768 31.0785 8.14648 31.29 8.39062C31.5016 8.63151 31.6628 8.91634 31.7734 9.24512C31.8841 9.57064 31.9395 9.92383 31.9395 10.3047V10.417C31.9395 10.7979 31.8841 11.151 31.7734 11.4766C31.6628 11.8021 31.5016 12.0869 31.29 12.3311C31.0785 12.5719 30.8213 12.7607 30.5186 12.8975C30.2158 13.0309 29.8724 13.0977 29.4883 13.0977C29.1009 13.0977 28.7542 13.0309 28.4482 12.8975C28.1455 12.7607 27.8883 12.5719 27.6768 12.3311C27.4652 12.0869 27.304 11.8021 27.1934 11.4766C27.0827 11.151 27.0273 10.7979 27.0273 10.417ZM28.2041 10.3047V10.417C28.2041 10.6546 28.2285 10.8792 28.2773 11.0908C28.3262 11.3024 28.4027 11.488 28.5068 11.6475C28.611 11.807 28.7445 11.9323 28.9072 12.0234C29.07 12.1146 29.2637 12.1602 29.4883 12.1602C29.7064 12.1602 29.8952 12.1146 30.0547 12.0234C30.2174 11.9323 30.3509 11.807 30.4551 11.6475C30.5592 11.488 30.6357 11.3024 30.6846 11.0908C30.7367 10.8792 30.7627 10.6546 30.7627 10.417V10.3047C30.7627 10.0703 30.7367 9.84896 30.6846 9.64062C30.6357 9.42904 30.5576 9.24186 30.4502 9.0791C30.346 8.91634 30.2126 8.78939 30.0498 8.69824C29.8903 8.60384 29.6999 8.55664 29.4785 8.55664C29.2572 8.55664 29.0651 8.60384 28.9023 8.69824C28.7428 8.78939 28.611 8.91634 28.5068 9.0791C28.4027 9.24186 28.3262 9.42904 28.2773 9.64062C28.2285 9.84896 28.2041 10.0703 28.2041 10.3047ZM34.1928 8.84473V13H33.016V7.7168H34.1244L34.1928 8.84473ZM33.9828 10.1631L33.602 10.1582C33.6052 9.78385 33.6573 9.44043 33.7582 9.12793C33.8624 8.81543 34.0056 8.54688 34.1879 8.32227C34.3734 8.09766 34.5948 7.92513 34.852 7.80469C35.1091 7.68099 35.3956 7.61914 35.7113 7.61914C35.9652 7.61914 36.1947 7.65495 36.3998 7.72656C36.6081 7.79492 36.7855 7.90723 36.932 8.06348C37.0818 8.21973 37.1957 8.42318 37.2738 8.67383C37.352 8.92122 37.391 9.22559 37.391 9.58691V13H36.2094V9.58203C36.2094 9.32812 36.1719 9.12793 36.0971 8.98145C36.0255 8.83171 35.9197 8.72591 35.7797 8.66406C35.643 8.59896 35.4721 8.56641 35.267 8.56641C35.0652 8.56641 34.8845 8.60872 34.725 8.69336C34.5655 8.77799 34.4304 8.89355 34.3197 9.04004C34.2123 9.18652 34.1293 9.35579 34.0707 9.54785C34.0121 9.73991 33.9828 9.94499 33.9828 10.1631Z" fill="#B51F1F"/>
</svg>
