<svg width="74" height="20" viewBox="0 0 74 20" fill="none" xmlns="http://www.w3.org/2000/svg">
<rect x="1" y="1" width="72" height="18" rx="9" fill="#5C5C61" fill-opacity="0.48"/>
<rect x="1" y="1" width="72" height="18" rx="9" stroke="#5C5C61" stroke-width="2"/>
<path d="M26.7342 5.89062V13H25.5086L22.3201 7.90723V13H21.0945V5.89062H22.3201L25.5184 10.9932V5.89062H26.7342ZM30.5061 13.0977C30.1154 13.0977 29.7622 13.0342 29.4465 12.9072C29.134 12.777 28.8671 12.5964 28.6457 12.3652C28.4276 12.1341 28.26 11.8623 28.1428 11.5498C28.0256 11.2373 27.967 10.9004 27.967 10.5391V10.3438C27.967 9.93034 28.0272 9.55599 28.1477 9.2207C28.2681 8.88542 28.4357 8.59896 28.6506 8.36133C28.8654 8.12044 29.1193 7.93652 29.4123 7.80957C29.7053 7.68262 30.0227 7.61914 30.3645 7.61914C30.7421 7.61914 31.0725 7.68262 31.3557 7.80957C31.6389 7.93652 31.8732 8.11556 32.0588 8.34668C32.2476 8.57454 32.3876 8.84635 32.4787 9.16211C32.5731 9.47786 32.6203 9.82617 32.6203 10.207V10.71H28.5383V9.86523H31.4582V9.77246C31.4517 9.56087 31.4094 9.3623 31.3313 9.17676C31.2564 8.99121 31.1408 8.84147 30.9846 8.72754C30.8283 8.61361 30.62 8.55664 30.3596 8.55664C30.1643 8.55664 29.9901 8.59896 29.8371 8.68359C29.6874 8.76497 29.562 8.88379 29.4611 9.04004C29.3602 9.19629 29.2821 9.38509 29.2268 9.60645C29.1747 9.82454 29.1486 10.0703 29.1486 10.3438V10.5391C29.1486 10.7702 29.1796 10.985 29.2414 11.1836C29.3065 11.3789 29.4009 11.5498 29.5246 11.6963C29.6483 11.8428 29.798 11.9583 29.9738 12.043C30.1496 12.1243 30.3498 12.165 30.5744 12.165C30.8576 12.165 31.1099 12.1081 31.3313 11.9941C31.5526 11.8802 31.7447 11.7191 31.9074 11.5107L32.5275 12.1113C32.4136 12.2773 32.2655 12.4368 32.0832 12.5898C31.9009 12.7396 31.6779 12.8617 31.4143 12.9561C31.1538 13.0505 30.8511 13.0977 30.5061 13.0977ZM36.817 11.7549V7.7168H37.9986V13H36.8854L36.817 11.7549ZM36.983 10.6562L37.3785 10.6465C37.3785 11.0013 37.3395 11.3285 37.2613 11.6279C37.1832 11.9242 37.0628 12.1829 36.9 12.4043C36.7372 12.6224 36.5289 12.7933 36.275 12.917C36.0211 13.0374 35.7167 13.0977 35.3619 13.0977C35.1048 13.0977 34.8688 13.0602 34.6539 12.9854C34.4391 12.9105 34.2535 12.7949 34.0973 12.6387C33.9443 12.4824 33.8255 12.279 33.7408 12.0283C33.6562 11.7777 33.6139 11.4782 33.6139 11.1299V7.7168H34.7906V11.1396C34.7906 11.3317 34.8134 11.4928 34.859 11.623C34.9046 11.75 34.9664 11.8525 35.0445 11.9307C35.1227 12.0088 35.2138 12.0641 35.318 12.0967C35.4221 12.1292 35.5328 12.1455 35.65 12.1455C35.9853 12.1455 36.249 12.0804 36.441 11.9502C36.6363 11.8167 36.7747 11.6377 36.8561 11.4131C36.9407 11.1885 36.983 10.9362 36.983 10.6562ZM41.7266 7.7168V8.57617H38.748V7.7168H41.7266ZM39.6074 6.42285H40.7842V11.54C40.7842 11.7028 40.807 11.8281 40.8525 11.916C40.9014 12.0007 40.9681 12.0576 41.0527 12.0869C41.1374 12.1162 41.2367 12.1309 41.3506 12.1309C41.432 12.1309 41.5101 12.126 41.585 12.1162C41.6598 12.1064 41.7201 12.0967 41.7656 12.0869L41.7705 12.9854C41.6729 13.0146 41.5589 13.0407 41.4287 13.0635C41.3018 13.0863 41.1553 13.0977 40.9893 13.0977C40.7191 13.0977 40.4798 13.0505 40.2715 12.9561C40.0632 12.8584 39.9004 12.7005 39.7832 12.4824C39.666 12.2643 39.6074 11.9746 39.6074 11.6133V6.42285ZM43.9164 8.72266V13H42.7396V7.7168H43.8627L43.9164 8.72266ZM45.5326 7.68262L45.5229 8.77637C45.4512 8.76335 45.3731 8.75358 45.2885 8.74707C45.2071 8.74056 45.1257 8.7373 45.0443 8.7373C44.8425 8.7373 44.6651 8.7666 44.5121 8.8252C44.3591 8.88053 44.2305 8.96191 44.1264 9.06934C44.0255 9.1735 43.9473 9.30046 43.892 9.4502C43.8367 9.59993 43.8041 9.76758 43.7943 9.95312L43.5258 9.97266C43.5258 9.64062 43.5583 9.33301 43.6234 9.0498C43.6885 8.7666 43.7862 8.51758 43.9164 8.30273C44.0499 8.08789 44.2159 7.92025 44.4145 7.7998C44.6163 7.67936 44.849 7.61914 45.1127 7.61914C45.1843 7.61914 45.2608 7.62565 45.3422 7.63867C45.4268 7.65169 45.4903 7.66634 45.5326 7.68262ZM49.1727 11.9404V9.4209C49.1727 9.2321 49.1385 9.06934 49.0701 8.93262C49.0018 8.7959 48.8976 8.6901 48.7576 8.61523C48.6209 8.54036 48.4484 8.50293 48.24 8.50293C48.048 8.50293 47.882 8.53548 47.742 8.60059C47.602 8.66569 47.493 8.75358 47.4148 8.86426C47.3367 8.97493 47.2977 9.10026 47.2977 9.24023H46.1258C46.1258 9.0319 46.1762 8.83008 46.2771 8.63477C46.3781 8.43945 46.5245 8.2653 46.7166 8.1123C46.9087 7.95931 47.1382 7.83887 47.4051 7.75098C47.672 7.66309 47.9715 7.61914 48.3035 7.61914C48.7007 7.61914 49.0522 7.68587 49.3582 7.81934C49.6674 7.9528 49.91 8.15462 50.0857 8.4248C50.2648 8.69173 50.3543 9.02702 50.3543 9.43066V11.7793C50.3543 12.0202 50.3706 12.2367 50.4031 12.4287C50.4389 12.6175 50.4894 12.7819 50.5545 12.9219V13H49.3484C49.2931 12.873 49.2492 12.7119 49.2166 12.5166C49.1873 12.318 49.1727 12.126 49.1727 11.9404ZM49.3436 9.78711L49.3533 10.5146H48.5086C48.2905 10.5146 48.0984 10.5358 47.9324 10.5781C47.7664 10.6172 47.6281 10.6758 47.5174 10.7539C47.4067 10.832 47.3237 10.9264 47.2684 11.0371C47.213 11.1478 47.1854 11.2731 47.1854 11.4131C47.1854 11.5531 47.2179 11.6816 47.283 11.7988C47.3481 11.9128 47.4425 12.0023 47.5662 12.0674C47.6932 12.1325 47.8462 12.165 48.0252 12.165C48.2661 12.165 48.476 12.1162 48.6551 12.0186C48.8374 11.9176 48.9806 11.7956 49.0848 11.6523C49.1889 11.5059 49.2443 11.3675 49.2508 11.2373L49.6316 11.7598C49.5926 11.8932 49.5258 12.0365 49.4314 12.1895C49.337 12.3424 49.2133 12.4889 49.0604 12.6289C48.9106 12.7656 48.7299 12.8779 48.5184 12.9658C48.31 13.0537 48.0691 13.0977 47.7957 13.0977C47.4507 13.0977 47.143 13.0293 46.8729 12.8926C46.6027 12.7526 46.3911 12.5654 46.2381 12.3311C46.0851 12.0934 46.0086 11.8249 46.0086 11.5254C46.0086 11.2454 46.0607 10.998 46.1648 10.7832C46.2723 10.5651 46.4285 10.3828 46.6336 10.2363C46.8419 10.0898 47.0958 9.97917 47.3953 9.9043C47.6948 9.82617 48.0366 9.78711 48.4207 9.78711H49.3436ZM52.9445 5.5V13H51.7629V5.5H52.9445Z" fill="#5C5C61"/>
</svg>
