<svg width="23" height="23" viewBox="0 0 23 23" fill="none" xmlns="http://www.w3.org/2000/svg">
<path d="M10.5935 16.3619H12.4843V12.5804H16.2657V10.6897H12.4843V6.9083H10.5935V10.6897H6.81211V12.5804H10.5935V16.3619ZM11.5389 21.0887C10.2312 21.0887 9.00219 20.8444 7.85201 20.356C6.70182 19.8518 5.70132 19.1743 4.8505 18.3235C3.99968 17.4727 3.32217 16.4722 2.81798 15.322C2.32954 14.1718 2.08533 12.9428 2.08533 11.6351C2.08533 10.3273 2.32954 9.09838 2.81798 7.9482C3.32217 6.79801 3.99968 5.79751 4.8505 4.94669C5.70132 4.09587 6.70182 3.42624 7.85201 2.9378C9.00219 2.43361 10.2312 2.18152 11.5389 2.18152C12.8466 2.18152 14.0756 2.43361 15.2258 2.9378C16.376 3.42624 17.3765 4.09587 18.2273 4.94669C19.0781 5.79751 19.7477 6.79801 20.2362 7.9482C20.7404 9.09838 20.9925 10.3273 20.9925 11.6351C20.9925 12.9428 20.7404 14.1718 20.2362 15.322C19.7477 16.4722 19.0781 17.4727 18.2273 18.3235C17.3765 19.1743 16.376 19.8518 15.2258 20.356C14.0756 20.8444 12.8466 21.0887 11.5389 21.0887ZM11.5389 19.1979C13.6502 19.1979 15.4385 18.4653 16.9038 17C18.3691 15.5347 19.1018 13.7464 19.1018 11.6351C19.1018 9.52379 18.3691 7.73549 16.9038 6.27019C15.4385 4.80488 13.6502 4.07223 11.5389 4.07223C9.4276 4.07223 7.6393 4.80488 6.174 6.27019C4.70869 7.73549 3.97604 9.52379 3.97604 11.6351C3.97604 13.7464 4.70869 15.5347 6.174 17C7.6393 18.4653 9.4276 19.1979 11.5389 19.1979Z" fill="#49454F"/>
</svg>
